REM DIRINDEX 1\2\4,1\2\5,1\3\6,1\3\7,1\3\8
REM DIRNAME cjc092,folder01,folder02,folder03,folder04,folder05,folder06,folder07
TITLE ""
FILE "LEVEL3-001-midashigo.mp3" MP3
  TRACK 01 AUDIO
    TITLE "0:"
    INDEX 01 00:00:00
  TRACK 02 AUDIO
    TITLE "6:cjc092_1752"
    INDEX 01 00:00:05
  TRACK 03 AUDIO
    TITLE "0:"
    INDEX 01 00:01:34
  TRACK 04 AUDIO
    TITLE "6:cjc092_1753"
    INDEX 01 00:02:14
  TRACK 05 AUDIO
    TITLE "0:"
    INDEX 01 00:04:64
  TRACK 06 AUDIO
    TITLE "7:cjc092_1754"
    INDEX 01 00:05:40
  TRACK 07 AUDIO
    TITLE "8:cjc092_1755"
    INDEX 01 00:06:63
  TRACK 08 AUDIO
    TITLE "0:"
    INDEX 01 00:10:49
  TRACK 09 AUDIO
    TITLE "7:cjc092_1756"
    INDEX 01 00:11:05
  TRACK 10 AUDIO
    TITLE "8:cjc092_1757"
    INDEX 01 00:12:22
  TRACK 11 AUDIO
    TITLE "0:"
    INDEX 01 00:15:64
  TRACK 12 AUDIO
    TITLE "7:cjc092_1758"
    INDEX 01 00:16:24
  TRACK 13 AUDIO
    TITLE "8:cjc092_1759"
    INDEX 01 00:17:51
  TRACK 14 AUDIO
    TITLE "0:"
    INDEX 01 00:19:20
  TRACK 15 AUDIO
    TITLE "7:cjc092_1760"
    INDEX 01 00:19:44
  TRACK 16 AUDIO
    TITLE "8:cjc092_1761"
    INDEX 01 00:20:63
  TRACK 17 AUDIO
    TITLE "0:"
    INDEX 01 00:26:01
  TRACK 18 AUDIO
    TITLE "7:cjc092_1762"
    INDEX 01 00:26:34
  TRACK 19 AUDIO
    TITLE "8:cjc092_1763"
    INDEX 01 00:28:06
  TRACK 20 AUDIO
    TITLE "0:"
    INDEX 01 00:29:72
  TRACK 21 AUDIO
    TITLE "7:cjc092_1764"
    INDEX 01 00:30:30
  TRACK 22 AUDIO
    TITLE "8:cjc092_1765"
    INDEX 01 00:31:73
  TRACK 23 AUDIO
    TITLE "0:"
    INDEX 01 00:34:16
  TRACK 24 AUDIO
    TITLE "7:cjc092_1766"
    INDEX 01 00:34:51
  TRACK 25 AUDIO
    TITLE "8:cjc092_1767"
    INDEX 01 00:36:07
  TRACK 26 AUDIO
    TITLE "0:"
    INDEX 01 00:38:06
  TRACK 27 AUDIO
    TITLE "7:cjc092_1768"
    INDEX 01 00:38:41
  TRACK 28 AUDIO
    TITLE "8:cjc092_1769"
    INDEX 01 00:39:72
  TRACK 29 AUDIO
    TITLE "0:"
    INDEX 01 00:42:10
  TRACK 30 AUDIO
    TITLE "7:cjc092_1770"
    INDEX 01 00:42:45
  TRACK 31 AUDIO
    TITLE "8:cjc092_1771"
    INDEX 01 00:43:66
  TRACK 32 AUDIO
    TITLE "0:"
    INDEX 01 00:46:21
  TRACK 33 AUDIO
    TITLE "7:cjc092_1772"
    INDEX 01 00:46:56
  TRACK 34 AUDIO
    TITLE "8:cjc092_1773"
    INDEX 01 00:48:10
  TRACK 35 AUDIO
    TITLE "0:"
    INDEX 01 00:50:70
  TRACK 36 AUDIO
    TITLE "7:cjc092_1774"
    INDEX 01 00:51:28
  TRACK 37 AUDIO
    TITLE "8:cjc092_1775"
    INDEX 01 00:52:67
  TRACK 38 AUDIO
    TITLE "0:"
    INDEX 01 00:54:46
  TRACK 39 AUDIO
    TITLE "7:cjc092_1776"
    INDEX 01 00:55:08
  TRACK 40 AUDIO
    TITLE "8:cjc092_1777"
    INDEX 01 00:56:43
  TRACK 41 AUDIO
    TITLE "0:"
    INDEX 01 00:58:40
  TRACK 42 AUDIO
    TITLE "7:cjc092_1778"
    INDEX 01 00:58:73
  TRACK 43 AUDIO
    TITLE "8:cjc092_1779"
    INDEX 01 01:00:13
  TRACK 44 AUDIO
    TITLE "0:"
    INDEX 01 01:01:64
  TRACK 45 AUDIO
    TITLE "7:cjc092_1780"
    INDEX 01 01:02:12
  TRACK 46 AUDIO
    TITLE "8:cjc092_1781"
    INDEX 01 01:03:29
  TRACK 47 AUDIO
    TITLE "0:"
    INDEX 01 01:05:19
  TRACK 48 AUDIO
    TITLE "7:cjc092_1782"
    INDEX 01 01:05:54
  TRACK 49 AUDIO
    TITLE "8:cjc092_1783"
    INDEX 01 01:06:67
  TRACK 50 AUDIO
    TITLE "0:"
    INDEX 01 01:08:58
  TRACK 51 AUDIO
    TITLE "7:cjc092_1784"
    INDEX 01 01:09:09
  TRACK 52 AUDIO
    TITLE "8:cjc092_1785"
    INDEX 01 01:10:39
  TRACK 53 AUDIO
    TITLE "0:"
    INDEX 01 01:14:16
  TRACK 54 AUDIO
    TITLE "7:cjc092_1786"
    INDEX 01 01:14:37
  TRACK 55 AUDIO
    TITLE "8:cjc092_1787"
    INDEX 01 01:16:20
  TRACK 56 AUDIO
    TITLE "0:"
    INDEX 01 01:17:57
  TRACK 57 AUDIO
    TITLE "7:cjc092_1788"
    INDEX 01 01:18:17
  TRACK 58 AUDIO
    TITLE "8:cjc092_1789"
    INDEX 01 01:19:74
  TRACK 59 AUDIO
    TITLE "0:"
    INDEX 01 01:22:31
  TRACK 60 AUDIO
    TITLE "7:cjc092_1790"
    INDEX 01 01:22:60
  TRACK 61 AUDIO
    TITLE "8:cjc092_1791"
    INDEX 01 01:24:22
  TRACK 62 AUDIO
    TITLE "0:"
    INDEX 01 01:27:53
